<mxfile host="app.diagrams.net" modified="2023-09-24T17:22:11.193Z" agent="Mozilla/5.0 (Windows NT 10.0; Win64; x64) AppleWebKit/537.36 (KHTML, like Gecko) Chrome/117.0.0.0 Safari/537.36" etag="W2USmMb39YLtWsM36nWu" version="21.8.2" type="github">
  <diagram id="C5RBs43oDa-KdzZeNtuy" name="Page-1">
    <mxGraphModel dx="521" dy="559" grid="1" gridSize="10" guides="1" tooltips="1" connect="1" arrows="1" fold="1" page="1" pageScale="1" pageWidth="827" pageHeight="1169" math="0" shadow="0">
      <root>
        <mxCell id="WIyWlLk6GJQsqaUBKTNV-0" />
        <mxCell id="WIyWlLk6GJQsqaUBKTNV-1" parent="WIyWlLk6GJQsqaUBKTNV-0" />
        <mxCell id="AgrkTU_8FYSsDIzBvHiQ-6" value="" style="edgeStyle=orthogonalEdgeStyle;rounded=0;orthogonalLoop=1;jettySize=auto;html=1;" edge="1" parent="WIyWlLk6GJQsqaUBKTNV-1" source="AgrkTU_8FYSsDIzBvHiQ-0" target="AgrkTU_8FYSsDIzBvHiQ-1">
          <mxGeometry relative="1" as="geometry" />
        </mxCell>
        <mxCell id="AgrkTU_8FYSsDIzBvHiQ-0" value="Start" style="strokeWidth=2;html=1;shape=mxgraph.flowchart.start_1;whiteSpace=wrap;" vertex="1" parent="WIyWlLk6GJQsqaUBKTNV-1">
          <mxGeometry x="364" y="40" width="100" height="60" as="geometry" />
        </mxCell>
        <mxCell id="AgrkTU_8FYSsDIzBvHiQ-7" value="" style="edgeStyle=orthogonalEdgeStyle;rounded=0;orthogonalLoop=1;jettySize=auto;html=1;" edge="1" parent="WIyWlLk6GJQsqaUBKTNV-1" source="AgrkTU_8FYSsDIzBvHiQ-1" target="AgrkTU_8FYSsDIzBvHiQ-2">
          <mxGeometry relative="1" as="geometry" />
        </mxCell>
        <mxCell id="AgrkTU_8FYSsDIzBvHiQ-1" value="4 number sequence&lt;span id=&quot;docs-internal-guid-0ddb6e71-7fff-28ad-6f8a-a734f48ec6af&quot;&gt;&lt;/span&gt;&lt;span id=&quot;docs-internal-guid-0ddb6e71-7fff-28ad-6f8a-a734f48ec6af&quot;&gt;&lt;/span&gt;" style="shape=parallelogram;html=1;strokeWidth=2;perimeter=parallelogramPerimeter;whiteSpace=wrap;rounded=1;arcSize=12;size=0.23;" vertex="1" parent="WIyWlLk6GJQsqaUBKTNV-1">
          <mxGeometry x="337" y="140" width="154" height="60" as="geometry" />
        </mxCell>
        <mxCell id="AgrkTU_8FYSsDIzBvHiQ-8" value="" style="edgeStyle=orthogonalEdgeStyle;rounded=0;orthogonalLoop=1;jettySize=auto;html=1;" edge="1" parent="WIyWlLk6GJQsqaUBKTNV-1" source="AgrkTU_8FYSsDIzBvHiQ-2" target="AgrkTU_8FYSsDIzBvHiQ-3">
          <mxGeometry relative="1" as="geometry" />
        </mxCell>
        <mxCell id="AgrkTU_8FYSsDIzBvHiQ-2" value="sequence[i+1] - sequence[i] = commonDifference" style="rounded=1;whiteSpace=wrap;html=1;absoluteArcSize=1;arcSize=14;strokeWidth=2;" vertex="1" parent="WIyWlLk6GJQsqaUBKTNV-1">
          <mxGeometry x="324" y="240" width="179.5" height="70" as="geometry" />
        </mxCell>
        <mxCell id="AgrkTU_8FYSsDIzBvHiQ-3" value="Is arithmetic sequence?" style="strokeWidth=2;html=1;shape=mxgraph.flowchart.decision;whiteSpace=wrap;" vertex="1" parent="WIyWlLk6GJQsqaUBKTNV-1">
          <mxGeometry x="350" y="350" width="127" height="120" as="geometry" />
        </mxCell>
        <mxCell id="AgrkTU_8FYSsDIzBvHiQ-4" value="Print&amp;nbsp; commonDifference" style="shape=parallelogram;html=1;strokeWidth=2;perimeter=parallelogramPerimeter;whiteSpace=wrap;rounded=1;arcSize=12;size=0.23;" vertex="1" parent="WIyWlLk6GJQsqaUBKTNV-1">
          <mxGeometry x="137" y="510" width="200" height="75" as="geometry" />
        </mxCell>
        <mxCell id="AgrkTU_8FYSsDIzBvHiQ-5" value="Print not an arithmetic sequence." style="shape=parallelogram;html=1;strokeWidth=2;perimeter=parallelogramPerimeter;whiteSpace=wrap;rounded=1;arcSize=12;size=0.23;" vertex="1" parent="WIyWlLk6GJQsqaUBKTNV-1">
          <mxGeometry x="430" y="510" width="260" height="95" as="geometry" />
        </mxCell>
        <mxCell id="AgrkTU_8FYSsDIzBvHiQ-9" style="edgeStyle=orthogonalEdgeStyle;rounded=0;orthogonalLoop=1;jettySize=auto;html=1;entryX=0.571;entryY=0.039;entryDx=0;entryDy=0;entryPerimeter=0;exitX=0;exitY=0.5;exitDx=0;exitDy=0;exitPerimeter=0;" edge="1" parent="WIyWlLk6GJQsqaUBKTNV-1" source="AgrkTU_8FYSsDIzBvHiQ-3" target="AgrkTU_8FYSsDIzBvHiQ-4">
          <mxGeometry relative="1" as="geometry" />
        </mxCell>
        <mxCell id="AgrkTU_8FYSsDIzBvHiQ-10" style="edgeStyle=orthogonalEdgeStyle;rounded=0;orthogonalLoop=1;jettySize=auto;html=1;entryX=0.613;entryY=-0.037;entryDx=0;entryDy=0;entryPerimeter=0;exitX=1;exitY=0.5;exitDx=0;exitDy=0;exitPerimeter=0;" edge="1" parent="WIyWlLk6GJQsqaUBKTNV-1" source="AgrkTU_8FYSsDIzBvHiQ-3" target="AgrkTU_8FYSsDIzBvHiQ-5">
          <mxGeometry relative="1" as="geometry" />
        </mxCell>
        <mxCell id="AgrkTU_8FYSsDIzBvHiQ-11" value="Yes" style="text;strokeColor=none;align=center;fillColor=none;html=1;verticalAlign=middle;whiteSpace=wrap;rounded=0;" vertex="1" parent="WIyWlLk6GJQsqaUBKTNV-1">
          <mxGeometry x="249" y="388" width="60" height="30" as="geometry" />
        </mxCell>
        <mxCell id="AgrkTU_8FYSsDIzBvHiQ-13" value="No" style="text;strokeColor=none;align=center;fillColor=none;html=1;verticalAlign=middle;whiteSpace=wrap;rounded=0;" vertex="1" parent="WIyWlLk6GJQsqaUBKTNV-1">
          <mxGeometry x="530" y="387" width="60" height="30" as="geometry" />
        </mxCell>
      </root>
    </mxGraphModel>
  </diagram>
</mxfile>
